<?xml version="1.0" encoding="UTF-8" standalone="no"?>
<!-- Created with Inkscape (http://www.inkscape.org/) -->

<svg
   xmlns:dc="http://purl.org/dc/elements/1.1/"
   xmlns:cc="http://creativecommons.org/ns#"
   xmlns:rdf="http://www.w3.org/1999/02/22-rdf-syntax-ns#"
   xmlns:svg="http://www.w3.org/2000/svg"
   xmlns="http://www.w3.org/2000/svg"
   xmlns:xlink="http://www.w3.org/1999/xlink"
   xmlns:sodipodi="http://sodipodi.sourceforge.net/DTD/sodipodi-0.dtd"
   xmlns:inkscape="http://www.inkscape.org/namespaces/inkscape"
   width="154.09599mm"
   height="55.106998mm"
   viewBox="0 0 154.09599 55.106998"
   version="1.1"
   id="svg8"
   inkscape:version="0.92.5 (2060ec1f9f, 2020-04-08)"
   sodipodi:docname="logo-instalyze.svg">
  <defs
     id="defs2">
    <linearGradient
       inkscape:collect="always"
       id="linearGradient4845">
      <stop
         style="stop-color:#f38e00;stop-opacity:1"
         offset="0"
         id="stop4841" />
      <stop
         style="stop-color:#dd02d9;stop-opacity:1"
         offset="1"
         id="stop4843" />
    </linearGradient>
    <linearGradient
       inkscape:collect="always"
       id="linearGradient4722">
      <stop
         style="stop-color:#aa4400;stop-opacity:1;"
         offset="0"
         id="stop4718" />
      <stop
         style="stop-color:#aa4400;stop-opacity:0;"
         offset="1"
         id="stop4720" />
    </linearGradient>
    <linearGradient
       inkscape:collect="always"
       xlink:href="#linearGradient4722"
       id="linearGradient4732"
       gradientUnits="userSpaceOnUse"
       x1="-27.970238"
       y1="153.33279"
       x2="88.446426"
       y2="153.33279" />
    <linearGradient
       inkscape:collect="always"
       xlink:href="#linearGradient4722"
       id="linearGradient4734"
       gradientUnits="userSpaceOnUse"
       x1="-27.970238"
       y1="153.33279"
       x2="88.446426"
       y2="153.33279" />
    <linearGradient
       inkscape:collect="always"
       xlink:href="#linearGradient4722"
       id="linearGradient4736"
       gradientUnits="userSpaceOnUse"
       x1="-27.970238"
       y1="153.33279"
       x2="88.446426"
       y2="153.33279" />
    <linearGradient
       inkscape:collect="always"
       xlink:href="#linearGradient4722"
       id="linearGradient4738"
       gradientUnits="userSpaceOnUse"
       x1="-27.970238"
       y1="153.33279"
       x2="88.446426"
       y2="153.33279" />
    <linearGradient
       inkscape:collect="always"
       xlink:href="#linearGradient4722"
       id="linearGradient4740"
       gradientUnits="userSpaceOnUse"
       x1="-27.970238"
       y1="153.33279"
       x2="88.446426"
       y2="153.33279" />
    <linearGradient
       inkscape:collect="always"
       xlink:href="#linearGradient4722"
       id="linearGradient4742"
       gradientUnits="userSpaceOnUse"
       x1="-27.970238"
       y1="153.33279"
       x2="88.446426"
       y2="153.33279" />
    <linearGradient
       inkscape:collect="always"
       xlink:href="#linearGradient4722"
       id="linearGradient4744"
       gradientUnits="userSpaceOnUse"
       x1="-27.970238"
       y1="153.33279"
       x2="88.446426"
       y2="153.33279" />
    <linearGradient
       inkscape:collect="always"
       xlink:href="#linearGradient4722"
       id="linearGradient4746"
       gradientUnits="userSpaceOnUse"
       x1="-27.970238"
       y1="153.33279"
       x2="88.446426"
       y2="153.33279" />
    <linearGradient
       inkscape:collect="always"
       xlink:href="#linearGradient4722"
       id="linearGradient4748"
       gradientUnits="userSpaceOnUse"
       x1="-27.970238"
       y1="153.33279"
       x2="88.446426"
       y2="153.33279" />
    <linearGradient
       inkscape:collect="always"
       xlink:href="#linearGradient4722"
       id="linearGradient4750"
       gradientUnits="userSpaceOnUse"
       x1="-27.970238"
       y1="153.33279"
       x2="88.446426"
       y2="153.33279" />
    <linearGradient
       inkscape:collect="always"
       xlink:href="#linearGradient4722"
       id="linearGradient4752"
       gradientUnits="userSpaceOnUse"
       x1="-27.970238"
       y1="153.33279"
       x2="88.446426"
       y2="153.33279" />
    <linearGradient
       inkscape:collect="always"
       xlink:href="#linearGradient4722"
       id="linearGradient4754"
       gradientUnits="userSpaceOnUse"
       x1="-27.970238"
       y1="153.33279"
       x2="88.446426"
       y2="153.33279" />
    <linearGradient
       inkscape:collect="always"
       xlink:href="#linearGradient4722"
       id="linearGradient4756"
       gradientUnits="userSpaceOnUse"
       x1="-27.970238"
       y1="153.33279"
       x2="88.446426"
       y2="153.33279" />
    <linearGradient
       inkscape:collect="always"
       xlink:href="#linearGradient4722"
       id="linearGradient4758"
       gradientUnits="userSpaceOnUse"
       x1="-27.970238"
       y1="153.33279"
       x2="88.446426"
       y2="153.33279" />
    <linearGradient
       inkscape:collect="always"
       xlink:href="#linearGradient4722"
       id="linearGradient4760"
       gradientUnits="userSpaceOnUse"
       x1="-27.970238"
       y1="153.33279"
       x2="88.446426"
       y2="153.33279" />
    <linearGradient
       inkscape:collect="always"
       xlink:href="#linearGradient4845"
       id="linearGradient4847"
       x1="-35.972946"
       y1="148.5278"
       x2="-64.85289"
       y2="129.03394"
       gradientUnits="userSpaceOnUse" />
    <linearGradient
       inkscape:collect="always"
       xlink:href="#linearGradient4845"
       id="linearGradient4849"
       gradientUnits="userSpaceOnUse"
       x1="-35.972946"
       y1="148.5278"
       x2="-64.85289"
       y2="129.03394" />
    <linearGradient
       inkscape:collect="always"
       xlink:href="#linearGradient4845"
       id="linearGradient4851"
       gradientUnits="userSpaceOnUse"
       x1="-35.972946"
       y1="148.5278"
       x2="-64.85289"
       y2="129.03394" />
    <linearGradient
       inkscape:collect="always"
       xlink:href="#linearGradient4845"
       id="linearGradient4964"
       x1="82.082207"
       y1="147.85049"
       x2="115.3167"
       y2="131.2646"
       gradientUnits="userSpaceOnUse" />
    <linearGradient
       inkscape:collect="always"
       xlink:href="#linearGradient4845"
       id="linearGradient4974"
       gradientUnits="userSpaceOnUse"
       x1="82.082207"
       y1="147.85049"
       x2="115.3167"
       y2="131.2646" />
    <linearGradient
       inkscape:collect="always"
       xlink:href="#linearGradient4845"
       id="linearGradient4976"
       gradientUnits="userSpaceOnUse"
       x1="82.082207"
       y1="147.85049"
       x2="115.3167"
       y2="131.2646" />
  </defs>
  <sodipodi:namedview
     id="base"
     pagecolor="#ffffff"
     bordercolor="#666666"
     borderopacity="1.0"
     inkscape:pageopacity="0.0"
     inkscape:pageshadow="2"
     inkscape:zoom="0.49497475"
     inkscape:cx="544.94238"
     inkscape:cy="-24.012262"
     inkscape:document-units="mm"
     inkscape:current-layer="g4874"
     showgrid="false"
     inkscape:snap-text-baseline="true"
     inkscape:window-width="1366"
     inkscape:window-height="707"
     inkscape:window-x="0"
     inkscape:window-y="30"
     inkscape:window-maximized="1" />
  <metadata
     id="metadata5">
    <rdf:RDF>
      <cc:Work
         rdf:about="">
        <dc:format>image/svg+xml</dc:format>
        <dc:type
           rdf:resource="http://purl.org/dc/dcmitype/StillImage" />
        <dc:title></dc:title>
      </cc:Work>
    </rdf:RDF>
  </metadata>
  <g
     inkscape:label="Layer 1"
     inkscape:groupmode="layer"
     id="layer1"
     transform="translate(0,-241.893)">
    <g
       style="fill:url(#linearGradient4732);fill-opacity:1;fill-rule:nonzero;stroke:none;stroke-opacity:1"
       id="g27"
       transform="matrix(0.13815745,0,0,0.13815745,177.78334,107.56802)" />
    <g
       style="fill:url(#linearGradient4734);fill-opacity:1;fill-rule:nonzero;stroke:none;stroke-opacity:1"
       id="g29"
       transform="matrix(0.13815745,0,0,0.13815745,177.78334,107.56802)" />
    <g
       style="fill:url(#linearGradient4736);fill-opacity:1;fill-rule:nonzero;stroke:none;stroke-opacity:1"
       id="g31"
       transform="matrix(0.13815745,0,0,0.13815745,177.78334,107.56802)" />
    <g
       style="fill:url(#linearGradient4738);fill-opacity:1;fill-rule:nonzero;stroke:none;stroke-opacity:1"
       id="g33"
       transform="matrix(0.13815745,0,0,0.13815745,177.78334,107.56802)" />
    <g
       style="fill:url(#linearGradient4740);fill-opacity:1;fill-rule:nonzero;stroke:none;stroke-opacity:1"
       id="g35"
       transform="matrix(0.13815745,0,0,0.13815745,177.78334,107.56802)" />
    <g
       style="fill:url(#linearGradient4742);fill-opacity:1;fill-rule:nonzero;stroke:none;stroke-opacity:1"
       id="g37"
       transform="matrix(0.13815745,0,0,0.13815745,177.78334,107.56802)" />
    <g
       style="fill:url(#linearGradient4744);fill-opacity:1;fill-rule:nonzero;stroke:none;stroke-opacity:1"
       id="g39"
       transform="matrix(0.13815745,0,0,0.13815745,177.78334,107.56802)" />
    <g
       style="fill:url(#linearGradient4746);fill-opacity:1;fill-rule:nonzero;stroke:none;stroke-opacity:1"
       id="g41"
       transform="matrix(0.13815745,0,0,0.13815745,177.78334,107.56802)" />
    <g
       style="fill:url(#linearGradient4748);fill-opacity:1;fill-rule:nonzero;stroke:none;stroke-opacity:1"
       id="g43"
       transform="matrix(0.13815745,0,0,0.13815745,177.78334,107.56802)" />
    <g
       style="fill:url(#linearGradient4750);fill-opacity:1;fill-rule:nonzero;stroke:none;stroke-opacity:1"
       id="g45"
       transform="matrix(0.13815745,0,0,0.13815745,177.78334,107.56802)" />
    <g
       style="fill:url(#linearGradient4752);fill-opacity:1;fill-rule:nonzero;stroke:none;stroke-opacity:1"
       id="g47"
       transform="matrix(0.13815745,0,0,0.13815745,177.78334,107.56802)" />
    <g
       style="fill:url(#linearGradient4754);fill-opacity:1;fill-rule:nonzero;stroke:none;stroke-opacity:1"
       id="g49"
       transform="matrix(0.13815745,0,0,0.13815745,177.78334,107.56802)" />
    <g
       style="fill:url(#linearGradient4756);fill-opacity:1;fill-rule:nonzero;stroke:none;stroke-opacity:1"
       id="g51"
       transform="matrix(0.13815745,0,0,0.13815745,177.78334,107.56802)" />
    <g
       style="fill:url(#linearGradient4758);fill-opacity:1;fill-rule:nonzero;stroke:none;stroke-opacity:1"
       id="g53"
       transform="matrix(0.13815745,0,0,0.13815745,177.78334,107.56802)" />
    <g
       style="fill:url(#linearGradient4760);fill-opacity:1;fill-rule:nonzero;stroke:none;stroke-opacity:1"
       id="g55"
       transform="matrix(0.13815745,0,0,0.13815745,177.78334,107.56802)" />
    <g
       id="g4874"
       transform="matrix(1.4300049,0,0,1.4300049,-28.109939,73.436541)">
      <g
         id="g4985">
        <g
           id="g4831"
           transform="matrix(0.54827485,0,0,0.54827485,60.854166,59.223688)"
           style="fill:url(#linearGradient4847);fill-opacity:1">
          <g
             transform="matrix(1.3815745,0,0,1.3815745,-79.283923,102.69541)"
             id="g21"
             style="fill:url(#linearGradient4851);fill-opacity:1;fill-rule:nonzero;stroke:none;stroke-opacity:1">
            <path
               style="fill:url(#linearGradient4849);fill-opacity:1;fill-rule:nonzero;stroke:none;stroke-opacity:1"
               inkscape:connector-curvature="0"
               d="M 16,3 C 8.8324839,3 3,8.8324839 3,16 v 18 c 0,7.167516 5.8324839,13 13,13 h 18 c 7.167516,0 13,-5.832484 13,-13 V 16 C 47,8.8324839 41.167516,3 34,3 Z m 0,2 h 18 c 6.086484,0 11,4.9135161 11,11 v 18 c 0,6.086484 -4.913516,11 -11,11 H 16 C 9.9135161,45 5,40.086484 5,34 V 16 C 5,9.9135161 9.9135161,5 16,5 Z m 21,6 a 2,2 0 0 0 -2,2 2,2 0 0 0 2,2 2,2 0 0 0 2,-2 2,2 0 0 0 -2,-2 z m -12,3 c -6.063288,0 -11,4.936712 -11,11 0,6.063288 4.936712,11 11,11 6.063288,0 11,-4.936712 11,-11 0,-6.063288 -4.936712,-11 -11,-11 z m 0,2 c 4.982407,0 9,4.017593 9,9 0,4.982407 -4.017593,9 -9,9 -4.982407,0 -9,-4.017593 -9,-9 0,-4.982407 4.017593,-9 9,-9 z"
               id="path10" />
          </g>
        </g>
        <g
           transform="translate(-2.990418)"
           style="fill:url(#linearGradient4964);fill-opacity:1"
           id="g4944">
          <text
             id="text54"
             y="147.85049"
             x="58.766064"
             style="font-style:normal;font-variant:normal;font-weight:normal;font-stretch:normal;font-size:40.59647369px;line-height:1.25;font-family:Calinastiya;-inkscape-font-specification:'Calinastiya, Normal';font-variant-ligatures:normal;font-variant-caps:normal;font-variant-numeric:normal;font-feature-settings:normal;text-align:start;letter-spacing:0px;word-spacing:0px;writing-mode:lr-tb;text-anchor:start;fill:url(#linearGradient4974);fill-opacity:1;stroke:none;stroke-width:1.01491177"
             xml:space="preserve"><tspan
               id="tspan56"
               style="font-style:normal;font-variant:normal;font-weight:normal;font-stretch:normal;font-size:40.59647369px;font-family:Calinastiya;-inkscape-font-specification:'Calinastiya, Normal';font-variant-ligatures:normal;font-variant-caps:normal;font-variant-numeric:normal;font-feature-settings:normal;text-align:start;writing-mode:lr-tb;text-anchor:start;fill:url(#linearGradient4974);fill-opacity:1;stroke-width:1.01491177"
               y="147.85049"
               x="58.766064"
               sodipodi:role="line">Instalyze</tspan></text>
          <path
             id="path23"
             d="m 112.31494,127.50064 c 0.1882,0 0.36665,-0.0387 0.53387,-0.10005 l 2.46789,3.86402 c -0.34252,0.3241 -0.5586,0.77968 -0.5586,1.28811 0,0.98078 0.79549,1.77608 1.77638,1.77608 0.98096,0 1.77633,-0.7953 1.77633,-1.77608 0,-0.27226 -0.0659,-0.5268 -0.17513,-0.75751 l 3.24003,-2.36809 c 0.25258,0.21537 0.57512,0.34971 0.93232,0.34971 0.39501,0 0.75245,-0.15948 1.01288,-0.41635 l 3.31397,2.0726 c -0.16965,0.29538 -0.26791,0.63695 -0.26791,1.00217 0,1.11608 0.90427,2.02035 2.01986,2.02035 1.11542,0 2.01975,-0.90427 2.01975,-2.02035 0,-1.11601 -0.90433,-2.02028 -2.01975,-2.02028 -0.50795,0 -0.97126,0.18903 -1.3262,0.49904 l -3.3909,-2.12152 c 0.0488,-0.14499 0.0813,-0.29758 0.0813,-0.45909 0,-0.79703 -0.6461,-1.4432 -1.44302,-1.4432 -0.79732,0 -1.44361,0.64617 -1.44361,1.4432 0,0.1986 0.0404,0.38764 0.11331,0.55997 l -3.23486,2.36351 c -0.31725,-0.29597 -0.73996,-0.48078 -1.20809,-0.48078 -0.23242,0 -0.45326,0.0478 -0.65698,0.12911 l -2.46439,-3.85861 c 0.28218,-0.28135 0.45671,-0.67041 0.45671,-1.10008 0,-0.85874 -0.6958,-1.55454 -1.55453,-1.55454 -0.8585,0 -1.55448,0.6958 -1.55448,1.55454 -1.2e-4,0.85868 0.69539,1.55412 1.55383,1.55412 z"
             inkscape:connector-curvature="0"
             style="fill:url(#linearGradient4976);fill-opacity:1;fill-rule:nonzero;stroke:none;stroke-width:0.05944457;stroke-opacity:1"
             inkscape:transform-center-x="-32.035225"
             inkscape:transform-center-y="5.3392056"
             sodipodi:nodetypes="sccsssccsccssssccsssccsccsscs" />
        </g>
      </g>
    </g>
  </g>
</svg>
